<?xml version="1.0" encoding="UTF-8"?>
<svg xmlns="http://www.w3.org/2000/svg" xmlns:xlink="http://www.w3.org/1999/xlink" width="596.91pt" height="78.4pt" viewBox="0 0 596.91 78.4" version="1.1">
<defs>
<clipPath id="clip1">
  <path d="M 0 0 L 596.910156 0 L 596.910156 78.398438 L 0 78.398438 Z M 0 0 "/>
</clipPath>
</defs>
<g id="surface1">
<g clip-path="url(#clip1)" clip-rule="nonzero">
<path style=" stroke:none;fill-rule:nonzero;fill:rgb(9.803772%,24.313354%,43.136597%);fill-opacity:1;" d="M 145.835938 54.683594 C 145.835938 45.023438 140.664063 38.9375 132.652344 37.796875 L 132.652344 37.613281 C 139.855469 35.570313 143.621094 29.566406 143.621094 21.738281 C 143.621094 7.789063 134.964844 3.324219 123.007813 3.324219 L 98.539063 3.324219 L 98.539063 75.945313 L 123.199219 75.945313 C 140.257813 75.945313 145.835938 66.085938 145.835938 54.683594 M 113.132813 14.117188 L 118.410156 14.117188 C 125.652344 14.117188 129.003906 16.644531 129.003906 23.5625 C 129.003906 30.378906 125.328125 33.125 117.304688 33.125 L 113.132813 33.125 Z M 113.132813 65.152344 L 113.132813 43.289063 L 119.441406 43.289063 C 125.851563 43.289063 130.609375 45.734375 130.609375 54.160156 C 130.609375 62.628906 125.851563 65.152344 118.828125 65.152344 Z M 462.566406 1.742188 L 441.492188 1.742188 L 441.492188 76.640625 L 462.566406 76.640625 Z M 166.328125 60.566406 L 185.628906 60.566406 L 188.992188 75.945313 L 204.195313 75.945313 L 185.011719 3.324219 L 166.945313 3.324219 L 147.761719 75.945313 L 162.992188 75.945313 Z M 175.863281 15.9375 L 176.082031 15.9375 L 183.082031 48.585938 L 168.867188 48.585938 Z M 503.753906 78.398438 C 522.957031 78.398438 533.585938 62.183594 533.585938 47.113281 L 533.585938 46.460938 L 512.996094 46.460938 L 512.914063 47.03125 C 511.71875 53.96875 509.207031 58.726563 503.238281 58.726563 C 494.789063 58.726563 491.761719 49.222656 491.761719 39.207031 C 491.761719 29.148438 494.789063 19.664063 503.238281 19.664063 C 510.664063 19.664063 512.429688 27.121094 512.8125 29.898438 L 512.882813 30.476563 L 533.378906 30.476563 L 533.316406 29.769531 C 531.585938 11.070313 521.757813 0.101563 503.753906 -0.00390625 C 483.570313 -0.00390625 470.726563 15.792969 470.726563 39.207031 C 470.726563 61.101563 482.570313 78.398438 503.753906 78.398438 M 76.132813 3.804688 L 0 3.804688 L 0 17.476563 L 76.132813 17.476563 Z M 286.425781 77.378906 C 305.613281 77.378906 309.484375 63.828125 309.484375 48.167969 L 294.84375 48.167969 C 294.84375 63.828125 290.992188 66.570313 285.699219 66.570313 C 279.410156 66.570313 276.371094 62.628906 276.371094 40.652344 C 276.371094 20.09375 278.105469 12.667969 285.492188 12.667969 C 292.105469 12.667969 294.234375 17.246094 294.234375 27.839844 L 308.863281 27.839844 C 308.863281 17.246094 307.335938 1.925781 286.425781 1.925781 C 264.480469 1.925781 261.761719 17.585938 261.761719 39.632813 C 261.761719 61.699219 264.480469 77.378906 286.425781 77.378906 M 220.515625 25.078125 L 220.730469 25.078125 L 238.597656 75.945313 L 255.230469 75.945313 L 255.230469 3.324219 L 241.839844 3.324219 L 241.839844 53.054688 L 241.644531 53.054688 L 223.96875 3.324219 L 207.117188 3.324219 L 207.117188 75.945313 L 220.515625 75.945313 Z M 435.238281 53.632813 C 435.238281 43.214844 430.363281 37.777344 424.859375 35.15625 C 429.1875 32.121094 431.992188 27.964844 431.992188 20.839844 C 431.992188 13.113281 428.296875 1.742188 410.957031 1.742188 L 375.324219 1.742188 L 375.324219 76.640625 L 412.191406 76.640625 C 423.816406 76.640625 435.238281 68.742188 435.238281 53.632813 M 395.679688 19.929688 L 406.023438 19.929688 C 410.054688 19.929688 412.71875 21.25 412.71875 24.960938 C 412.71875 29.699219 410.125 31.046875 406.023438 31.046875 L 395.679688 31.046875 Z M 395.679688 58.472656 L 395.679688 44.777344 L 407.976563 44.777344 C 412.625 44.777344 414.867188 47.113281 414.867188 51.449219 C 414.867188 57.125 411.3125 58.472656 407.214844 58.472656 Z M 338.792969 77.378906 C 360.722656 77.378906 363.492188 61.699219 363.492188 39.632813 C 363.492188 17.585938 360.722656 1.925781 338.792969 1.925781 C 316.894531 1.925781 314.140625 17.585938 314.140625 39.632813 C 314.140625 61.699219 316.894531 77.378906 338.792969 77.378906 M 338.792969 12.667969 C 347.421875 12.667969 348.859375 20.199219 348.859375 39.632813 C 348.859375 59.167969 347.421875 66.570313 338.792969 66.570313 C 330.171875 66.570313 328.757813 59.167969 328.757813 39.632813 C 328.757813 20.199219 330.171875 12.667969 338.792969 12.667969 M 76.132813 22.953125 L 0 22.953125 L 0 36.648438 L 76.132813 36.648438 Z M 562.808594 57.785156 L 562.808594 48.023438 L 592.914063 48.023438 L 592.914063 30.84375 L 562.808594 30.84375 L 562.808594 20.878906 L 595.953125 20.878906 L 595.953125 1.742188 L 541.761719 1.742188 L 541.761719 76.640625 L 596.914063 76.640625 L 596.914063 57.785156 Z M 76.132813 61.273438 L 0 61.273438 L 0 74.949219 L 76.132813 74.949219 Z M 76.132813 42.105469 L 0 42.105469 L 0 55.789063 L 76.132813 55.789063 L 76.132813 42.105469 "/>
</g>
</g>
</svg>
