<?xml version="1.0" encoding="UTF-8" standalone="no"?>
<!-- Created with Inkscape (http://www.inkscape.org/) -->

<svg
   xmlns:dc="http://purl.org/dc/elements/1.1/"
   xmlns:cc="http://creativecommons.org/ns#"
   xmlns:rdf="http://www.w3.org/1999/02/22-rdf-syntax-ns#"
   xmlns:svg="http://www.w3.org/2000/svg"
   xmlns="http://www.w3.org/2000/svg"
   xmlns:sodipodi="http://sodipodi.sourceforge.net/DTD/sodipodi-0.dtd"
   xmlns:inkscape="http://www.inkscape.org/namespaces/inkscape"
   width="3000"
   height="1895.2855"
   viewBox="0 0 793.74998 501.46098"
   version="1.1"
   id="svg6648"
   inkscape:version="0.92.1 r15371"
   sodipodi:docname="CMR.svg">
  <defs
     id="defs6642" />
  <sodipodi:namedview
     id="base"
     pagecolor="#ffffff"
     bordercolor="#666666"
     borderopacity="1.0"
     inkscape:pageopacity="0.0"
     inkscape:pageshadow="2"
     inkscape:zoom="0.20982291"
     inkscape:cx="643.26641"
     inkscape:cy="957.5435"
     inkscape:document-units="mm"
     inkscape:current-layer="layer1"
     showgrid="false"
     inkscape:showpageshadow="false"
     units="px"
     fit-margin-top="20"
     fit-margin-left="20"
     fit-margin-right="20"
     fit-margin-bottom="20"
     inkscape:window-width="1366"
     inkscape:window-height="715"
     inkscape:window-x="-8"
     inkscape:window-y="-8"
     inkscape:window-maximized="1" />
  <metadata
     id="metadata6645">
    <rdf:RDF>
      <cc:Work
         rdf:about="">
        <dc:format>image/svg+xml</dc:format>
        <dc:type
           rdf:resource="http://purl.org/dc/dcmitype/StillImage" />
        <dc:title></dc:title>
      </cc:Work>
    </rdf:RDF>
  </metadata>
  <g
     inkscape:label="Capa 1"
     inkscape:groupmode="layer"
     id="layer1"
     transform="translate(88.593399,136.41171)">
    <g
       id="g8120">
      <g
         transform="matrix(0.35277777,0,0,-0.35277777,-29.837863,359.78068)"
         id="g6862">
        <path
           inkscape:connector-curvature="0"
           id="path6864"
           style="fill:#4d515a;fill-opacity:1;fill-rule:nonzero;stroke:none"
           d="m 0,0 h -66.286 c -1.882,0 -3.412,1.524 -3.412,3.398 v 39.218 c 0,1.875 1.53,3.4 3.412,3.4 H 0 c 1.88,0 3.41,-1.525 3.41,-3.4 V 3.398 C 3.41,1.524 1.88,0 0,0" />
      </g>
      <g
         transform="matrix(0.35277777,0,0,-0.35277777,-47.544626,351.19947)"
         id="g6866">
        <path
           inkscape:connector-curvature="0"
           id="path6868"
           style="fill:#287f3f;fill-opacity:1;fill-rule:nonzero;stroke:none"
           d="m 0,0 c -1.387,-2.029 -4.127,-2.646 -6.253,-1.354 -0.495,0.301 -1.147,0.822 -1.845,1.473 -3.911,-1.056 -8.295,-3.026 -8.295,-5.285 0,-3.374 9.775,-6.112 13.15,-6.112 3.373,0 6.108,2.738 6.108,6.112 C 2.865,-2.986 1.719,-1.08 0,0" />
      </g>
      <g
         transform="matrix(0.35277777,0,0,-0.35277777,-48.68872,355.26967)"
         id="g6870">
        <path
           inkscape:connector-curvature="0"
           id="path6872"
           style="fill:#ffffff;fill-opacity:1;fill-rule:nonzero;stroke:none"
           d="m 0,0 c -1.853,0 -5.263,0.777 -7.934,1.809 -2.498,0.964 -5.475,2.538 -5.475,4.563 0,2.392 4.385,4.427 8.486,5.534 l 0.139,0.038 0.106,-0.098 c 0.682,-0.638 1.323,-1.149 1.802,-1.441 0.688,-0.417 1.474,-0.639 2.273,-0.639 1.454,0 2.812,0.717 3.633,1.918 L 3.17,11.89 3.381,11.757 C 5.252,10.583 6.368,8.569 6.368,6.372 6.368,2.859 3.511,0 0,0 m -4.926,11.369 c -3.706,-1.019 -7.965,-2.922 -7.965,-4.997 0,-1.331 1.875,-2.818 5.144,-4.08 C -4.764,1.14 -1.528,0.519 0,0.519 c 3.226,0 5.851,2.626 5.851,5.853 0,1.937 -0.947,3.719 -2.542,4.814 C 2.381,9.968 0.937,9.249 -0.603,9.249 c -0.894,0 -1.773,0.246 -2.543,0.713 -0.482,0.294 -1.111,0.791 -1.78,1.407" />
      </g>
      <g
         transform="matrix(0.35277777,0,0,-0.35277777,-47.544626,351.19947)"
         id="g6874">
        <path
           inkscape:connector-curvature="0"
           id="path6876"
           style="fill:#a6d827;fill-opacity:1;fill-rule:nonzero;stroke:none"
           d="m 0,0 c 0.047,0.068 0.097,0.134 0.141,0.207 1.336,2.199 0.631,5.059 -1.565,6.387 -2.196,1.342 -9.639,3.422 -10.972,1.223 -1.034,-1.699 1.902,-5.466 4.298,-7.698 1.928,0.519 3.741,0.819 4.855,0.819 C -2.051,0.938 -0.941,0.591 0,0" />
      </g>
      <g
         transform="matrix(0.35277777,0,0,-0.35277777,-47.51845,351.32364)"
         id="g6878">
        <path
           inkscape:connector-curvature="0"
           id="path6880"
           style="fill:#ffffff;fill-opacity:1;fill-rule:nonzero;stroke:none"
           d="m 0,0 -0.212,0.132 c -0.936,0.589 -2.011,0.899 -3.105,0.899 -1.117,0 -2.906,-0.303 -4.788,-0.81 L -8.244,0.183 -8.349,0.281 c -2.036,1.896 -5.564,6.014 -4.342,8.023 0.436,0.72 1.427,1.085 2.946,1.085 2.897,0 6.899,-1.317 8.383,-2.222 C -0.242,6.489 0.548,5.415 0.859,4.142 1.173,2.868 0.969,1.547 0.287,0.424 0.255,0.371 0.218,0.318 0.182,0.266 Z m -3.317,1.549 c 1.11,0 2.199,-0.292 3.166,-0.848 0.606,1.004 0.787,2.181 0.507,3.318 -0.279,1.138 -0.985,2.098 -1.988,2.704 -1.399,0.856 -5.348,2.148 -8.113,2.148 -1.306,0 -2.172,-0.289 -2.505,-0.836 -0.849,-1.397 1.488,-4.768 4.15,-7.277 1.872,0.496 3.652,0.791 4.783,0.791" />
      </g>
      <g
         transform="matrix(0.35277777,0,0,-0.35277777,-43.649254,350.60313)"
         id="g6882">
        <path
           inkscape:connector-curvature="0"
           id="path6884"
           style="fill:#ffffff;fill-opacity:1;fill-rule:nonzero;stroke:none"
           d="m 0,0 c 0,0.383 -0.125,0.698 -0.367,0.941 -0.239,0.242 -0.599,0.365 -1.07,0.365 h -1.992 v -2.611 h 1.979 c 0.288,0 0.521,0.04 0.709,0.124 0.181,0.084 0.331,0.189 0.442,0.316 0.111,0.131 0.191,0.271 0.233,0.428 C -0.02,-0.282 0,-0.135 0,0 m -3.429,2.519 h 1.942 c 0.111,0 0.234,0.015 0.367,0.041 0.131,0.029 0.254,0.078 0.364,0.156 0.11,0.076 0.204,0.18 0.276,0.309 0.07,0.132 0.108,0.305 0.108,0.524 0,0.286 -0.096,0.514 -0.281,0.682 -0.19,0.168 -0.443,0.25 -0.763,0.25 H -3.429 Z M 0.204,1.978 C 0.427,1.891 0.625,1.773 0.792,1.623 0.958,1.477 1.095,1.31 1.198,1.127 1.302,0.943 1.38,0.747 1.433,0.542 1.482,0.334 1.511,0.118 1.511,-0.094 1.511,-0.472 1.436,-0.815 1.289,-1.125 1.141,-1.437 0.94,-1.708 0.689,-1.927 0.438,-2.153 0.14,-2.325 -0.197,-2.445 c -0.342,-0.12 -0.71,-0.177 -1.097,-0.177 h -2.922 c -0.26,0 -0.435,0.048 -0.531,0.161 -0.094,0.107 -0.142,0.279 -0.142,0.521 v 7.035 c 0,0.23 0.048,0.404 0.142,0.513 0.096,0.116 0.271,0.17 0.531,0.17 l 2.779,0.012 c 0.366,0 0.709,-0.04 1.027,-0.123 C -0.089,5.591 0.187,5.466 0.413,5.298 0.64,5.13 0.82,4.915 0.95,4.651 1.082,4.388 1.151,4.072 1.151,3.706 1.151,3.34 1.062,3.018 0.884,2.724 0.7,2.438 0.475,2.215 0.204,2.06 Z" />
      </g>
      <g
         transform="matrix(0.35277777,0,0,-0.35277777,-41.641102,350.48925)"
         id="g6886">
        <path
           inkscape:connector-curvature="0"
           id="path6888"
           style="fill:#ffffff;fill-opacity:1;fill-rule:nonzero;stroke:none"
           d="m 0,0 h -1.15 c -0.137,0 -0.284,-0.007 -0.437,-0.021 -0.157,-0.018 -0.304,-0.064 -0.443,-0.132 -0.142,-0.076 -0.259,-0.178 -0.349,-0.313 -0.094,-0.139 -0.138,-0.326 -0.138,-0.564 0,-0.344 0.115,-0.582 0.348,-0.72 0.23,-0.135 0.538,-0.203 0.925,-0.203 0.053,0 0.129,0 0.229,0.008 0.099,0.004 0.211,0.013 0.318,0.025 0.113,0.018 0.232,0.04 0.357,0.062 0.124,0.025 0.236,0.059 0.34,0.098 z M 1.414,-2.263 C 1.414,-2.458 1.338,-2.588 1.187,-2.66 1.015,-2.739 0.82,-2.807 0.62,-2.865 0.412,-2.919 0.204,-2.961 -0.014,-2.995 c -0.214,-0.034 -0.425,-0.055 -0.64,-0.067 -0.21,-0.012 -0.412,-0.016 -0.606,-0.016 -0.525,0 -0.961,0.052 -1.31,0.162 -0.346,0.109 -0.624,0.252 -0.829,0.429 -0.203,0.179 -0.345,0.394 -0.424,0.635 -0.082,0.245 -0.122,0.504 -0.122,0.777 0,0.279 0.049,0.547 0.14,0.804 0.092,0.261 0.241,0.49 0.451,0.686 0.205,0.197 0.474,0.353 0.806,0.473 0.334,0.12 0.738,0.18 1.216,0.18 h 1.344 v 0.203 c 0,0.153 -0.014,0.291 -0.049,0.418 -0.03,0.129 -0.092,0.244 -0.181,0.337 -0.094,0.096 -0.221,0.17 -0.382,0.22 -0.156,0.057 -0.367,0.082 -0.623,0.082 -0.27,0 -0.565,-0.025 -0.886,-0.073 C -2.428,2.206 -2.69,2.151 -2.889,2.087 -2.975,2.063 -3.038,2.057 -3.082,2.077 -3.121,2.09 -3.149,2.134 -3.164,2.206 l -0.169,0.682 c -0.033,0.13 0.005,0.216 0.106,0.253 0.338,0.126 0.706,0.218 1.105,0.268 0.399,0.052 0.777,0.081 1.128,0.081 0.832,0 1.437,-0.186 1.828,-0.553 0.387,-0.366 0.58,-0.903 0.58,-1.605 z" />
      </g>
      <g
         transform="matrix(0.35277777,0,0,-0.35277777,-40.020864,349.68189)"
         id="g6890">
        <path
           inkscape:connector-curvature="0"
           id="path6892"
           style="fill:#ffffff;fill-opacity:1;fill-rule:nonzero;stroke:none"
           d="m 0,0 c -0.093,0 -0.216,-0.002 -0.38,-0.005 -0.162,-0.003 -0.35,-0.026 -0.569,-0.063 v -4.967 c 0,-0.085 -0.017,-0.141 -0.048,-0.164 -0.034,-0.027 -0.091,-0.035 -0.18,-0.035 h -0.932 c -0.083,0 -0.139,0.008 -0.175,0.035 -0.037,0.023 -0.053,0.079 -0.053,0.164 V 0.1 c 0,0.289 0.049,0.51 0.152,0.666 0.105,0.165 0.321,0.271 0.65,0.329 0.076,0.004 0.186,0.018 0.32,0.033 0.136,0.016 0.278,0.028 0.432,0.037 0.149,0.004 0.3,0.015 0.44,0.022 0.141,0.009 0.27,0.014 0.373,0.014 0.524,0 0.981,-0.057 1.367,-0.169 C 1.784,0.917 2.101,0.742 2.355,0.499 2.607,0.255 2.791,-0.067 2.913,-0.455 3.03,-0.844 3.092,-1.318 3.092,-1.866 V -5.035 C 3.092,-5.12 3.073,-5.176 3.042,-5.199 3.013,-5.226 2.951,-5.234 2.865,-5.234 h -0.94 c -0.078,0 -0.135,0.008 -0.172,0.035 -0.036,0.023 -0.052,0.079 -0.052,0.164 v 3.192 c 0,0.308 -0.028,0.583 -0.079,0.814 -0.055,0.231 -0.143,0.425 -0.269,0.574 -0.129,0.15 -0.301,0.268 -0.521,0.341 C 0.61,-0.036 0.333,0 0,0" />
      </g>
      <g
         transform="matrix(0.35277777,0,0,-0.35277777,-37.662016,351.14486)"
         id="g6894">
        <path
           inkscape:connector-curvature="0"
           id="path6896"
           style="fill:#ffffff;fill-opacity:1;fill-rule:nonzero;stroke:none"
           d="M 0,0 C 0.256,0 0.516,0.035 0.77,0.098 1.021,0.161 1.238,0.234 1.407,0.313 1.49,0.351 1.553,0.364 1.588,0.348 1.625,0.333 1.655,0.293 1.678,0.231 l 0.3,-0.696 C 2.061,-0.594 2.036,-0.692 1.91,-0.767 1.576,-0.949 1.224,-1.073 0.848,-1.129 c -0.377,-0.063 -0.736,-0.09 -1.063,-0.09 -0.896,0 -1.579,0.27 -2.055,0.814 -0.479,0.539 -0.714,1.347 -0.714,2.423 0,0.502 0.069,0.96 0.202,1.369 0.137,0.409 0.331,0.763 0.581,1.055 0.254,0.292 0.559,0.515 0.915,0.672 0.354,0.153 0.755,0.234 1.203,0.234 0.326,0 0.646,-0.036 0.952,-0.102 C 1.177,5.177 1.467,5.073 1.738,4.928 1.811,4.889 1.854,4.848 1.87,4.811 1.887,4.768 1.875,4.708 1.836,4.626 L 1.535,3.922 C 1.504,3.859 1.471,3.817 1.437,3.801 1.396,3.788 1.331,3.794 1.238,3.837 1.045,3.908 0.844,3.973 0.635,4.026 0.428,4.074 0.212,4.098 -0.024,4.098 -0.293,4.098 -0.525,4.041 -0.722,3.926 -0.918,3.81 -1.08,3.658 -1.203,3.465 -1.327,3.275 -1.416,3.052 -1.473,2.799 -1.529,2.549 -1.559,2.288 -1.559,2.018 -1.559,1.736 -1.532,1.474 -1.485,1.23 -1.436,0.985 -1.355,0.773 -1.238,0.589 -1.124,0.409 -0.965,0.26 -0.766,0.156 -0.565,0.052 -0.309,0 0,0" />
      </g>
      <g
         transform="matrix(0.35277777,0,0,-0.35277777,-35.335905,350.42191)"
         id="g6898">
        <path
           inkscape:connector-curvature="0"
           id="path6900"
           style="fill:#ffffff;fill-opacity:1;fill-rule:nonzero;stroke:none"
           d="M 0,0 C 0,0.291 -0.021,0.562 -0.064,0.82 -0.111,1.08 -0.187,1.306 -0.293,1.502 -0.4,1.7 -0.549,1.854 -0.738,1.966 -0.925,2.08 -1.162,2.137 -1.453,2.137 -1.707,2.137 -1.931,2.083 -2.118,1.971 -2.313,1.86 -2.475,1.715 -2.603,1.53 -2.727,1.346 -2.824,1.124 -2.88,0.872 -2.944,0.614 -2.973,0.334 -2.973,0.036 c 0,-0.664 0.108,-1.188 0.327,-1.572 0.214,-0.379 0.597,-0.576 1.15,-0.576 0.277,0 0.512,0.059 0.706,0.178 0.192,0.119 0.343,0.27 0.46,0.464 0.117,0.196 0.203,0.417 0.252,0.67 C -0.026,-0.546 0,-0.28 0,0 m 1.428,0.036 c 0,-1.061 -0.246,-1.882 -0.74,-2.451 -0.489,-0.57 -1.222,-0.854 -2.199,-0.854 -0.965,0 -1.686,0.276 -2.162,0.831 -0.477,0.557 -0.716,1.368 -0.716,2.438 0,0.53 0.075,0.996 0.217,1.404 0.144,0.408 0.344,0.753 0.6,1.031 0.259,0.277 0.56,0.494 0.916,0.641 0.357,0.147 0.751,0.223 1.179,0.223 0.951,0 1.676,-0.292 2.165,-0.871 0.494,-0.576 0.74,-1.376 0.74,-2.392" />
      </g>
      <g
         transform="matrix(0.35277777,0,0,-0.35277777,-42.026265,354.12936)"
         id="g6902">
        <path
           inkscape:connector-curvature="0"
           id="path6904"
           style="fill:#ffffff;fill-opacity:1;fill-rule:nonzero;stroke:none"
           d="m 0,0 h -1.162 c -0.137,0 -0.283,-0.007 -0.44,-0.025 -0.162,-0.013 -0.308,-0.059 -0.449,-0.129 -0.137,-0.078 -0.258,-0.175 -0.351,-0.313 -0.089,-0.14 -0.136,-0.331 -0.136,-0.57 0,-0.347 0.116,-0.589 0.35,-0.727 0.231,-0.137 0.545,-0.208 0.93,-0.208 0.055,0 0.136,0.002 0.236,0.011 0.1,0.005 0.21,0.012 0.317,0.027 0.115,0.017 0.232,0.039 0.361,0.065 0.123,0.021 0.24,0.051 0.344,0.095 z M 1.426,-2.285 C 1.426,-2.476 1.35,-2.609 1.192,-2.684 1.018,-2.764 0.826,-2.834 0.623,-2.887 0.41,-2.946 0.205,-2.991 -0.015,-3.022 c -0.214,-0.031 -0.432,-0.054 -0.643,-0.067 -0.215,-0.013 -0.419,-0.017 -0.615,-0.017 -0.53,0 -0.971,0.053 -1.321,0.16 -0.35,0.112 -0.631,0.258 -0.836,0.44 -0.203,0.18 -0.349,0.394 -0.426,0.642 -0.082,0.243 -0.124,0.5 -0.124,0.777 0,0.286 0.048,0.552 0.138,0.818 0.094,0.259 0.244,0.492 0.454,0.687 0.217,0.197 0.483,0.36 0.818,0.479 0.334,0.118 0.746,0.18 1.224,0.18 H 0.01 V 1.28 c 0,0.151 -0.014,0.296 -0.048,0.428 -0.032,0.126 -0.096,0.239 -0.187,0.34 -0.092,0.091 -0.22,0.167 -0.379,0.216 C -0.77,2.319 -0.973,2.35 -1.233,2.35 -1.51,2.35 -1.803,2.325 -2.129,2.273 -2.453,2.228 -2.712,2.173 -2.919,2.105 -3.005,2.082 -3.072,2.08 -3.107,2.09 -3.146,2.105 -3.171,2.155 -3.188,2.228 l -0.169,0.689 c -0.034,0.128 0,0.213 0.105,0.249 0.333,0.125 0.705,0.221 1.111,0.277 0.403,0.048 0.779,0.078 1.134,0.078 0.839,0 1.452,-0.188 1.845,-0.557 0.391,-0.371 0.588,-0.91 0.588,-1.621 z" />
      </g>
      <g
         transform="matrix(0.35277777,0,0,-0.35277777,-38.845056,354.12936)"
         id="g6906">
        <path
           inkscape:connector-curvature="0"
           id="path6908"
           style="fill:#ffffff;fill-opacity:1;fill-rule:nonzero;stroke:none"
           d="m 0,0 h -1.156 c -0.139,0 -0.288,-0.007 -0.446,-0.025 -0.152,-0.013 -0.302,-0.059 -0.443,-0.129 -0.141,-0.078 -0.266,-0.175 -0.355,-0.313 -0.093,-0.14 -0.138,-0.331 -0.138,-0.57 0,-0.347 0.116,-0.589 0.352,-0.727 0.233,-0.137 0.544,-0.208 0.931,-0.208 0.056,0 0.13,0.002 0.235,0.011 0.096,0.005 0.209,0.012 0.321,0.027 0.11,0.017 0.232,0.039 0.354,0.065 0.127,0.021 0.24,0.051 0.345,0.095 z m 1.431,-2.285 c 0,-0.191 -0.078,-0.324 -0.234,-0.399 -0.173,-0.08 -0.369,-0.15 -0.571,-0.203 -0.208,-0.059 -0.419,-0.104 -0.636,-0.135 -0.222,-0.031 -0.431,-0.054 -0.646,-0.067 -0.218,-0.013 -0.42,-0.017 -0.611,-0.017 -0.534,0 -0.973,0.053 -1.323,0.16 -0.351,0.112 -0.631,0.258 -0.838,0.44 -0.203,0.18 -0.344,0.394 -0.426,0.642 -0.082,0.243 -0.125,0.5 -0.125,0.777 0,0.286 0.05,0.552 0.144,0.818 0.097,0.259 0.239,0.492 0.449,0.687 0.214,0.197 0.486,0.36 0.818,0.479 0.335,0.118 0.74,0.18 1.228,0.18 H 0.01 V 1.28 C 0.01,1.431 0,1.576 -0.036,1.708 -0.07,1.834 -0.13,1.947 -0.221,2.048 -0.315,2.139 -0.441,2.215 -0.604,2.264 -0.764,2.319 -0.976,2.35 -1.232,2.35 -1.506,2.35 -1.806,2.325 -2.127,2.273 -2.449,2.228 -2.71,2.173 -2.912,2.105 -3,2.082 -3.064,2.08 -3.102,2.09 -3.146,2.105 -3.172,2.155 -3.193,2.228 l -0.168,0.689 c -0.034,0.128 0.008,0.213 0.109,0.249 0.34,0.125 0.713,0.221 1.11,0.277 0.409,0.048 0.787,0.078 1.142,0.078 0.839,0 1.451,-0.188 1.84,-0.557 0.393,-0.371 0.591,-0.91 0.591,-1.621 z" />
      </g>
      <g
         transform="matrix(0.35277777,0,0,-0.35277777,-34.855986,353.30096)"
         id="g6910">
        <path
           inkscape:connector-curvature="0"
           id="path6912"
           style="fill:#ffffff;fill-opacity:1;fill-rule:nonzero;stroke:none"
           d="m 0,0 c -0.218,0 -0.409,-0.042 -0.579,-0.128 -0.174,-0.088 -0.32,-0.202 -0.434,-0.344 -0.12,-0.15 -0.219,-0.315 -0.295,-0.497 -0.07,-0.185 -0.111,-0.375 -0.117,-0.581 h 2.779 c 0,0.217 -0.017,0.419 -0.06,0.608 C 1.253,-0.758 1.185,-0.597 1.083,-0.456 0.979,-0.314 0.843,-0.204 0.677,-0.12 0.499,-0.042 0.273,0 0,0 m -0.022,1.173 c 0.921,0 1.615,-0.24 2.059,-0.716 0.446,-0.475 0.669,-1.126 0.669,-1.957 0,-0.208 -0.024,-0.38 -0.07,-0.523 C 2.587,-2.157 2.517,-2.264 2.431,-2.348 2.343,-2.427 2.239,-2.485 2.125,-2.513 2.005,-2.548 1.88,-2.564 1.742,-2.564 h -3.214 c 0.004,-0.319 0.053,-0.576 0.142,-0.793 0.089,-0.213 0.212,-0.385 0.362,-0.518 0.156,-0.131 0.33,-0.229 0.528,-0.284 0.203,-0.056 0.427,-0.084 0.66,-0.084 0.254,0 0.511,0.031 0.759,0.094 0.247,0.062 0.471,0.143 0.651,0.233 0.127,0.051 0.216,0.033 0.268,-0.073 l 0.33,-0.686 C 2.28,-4.809 2.249,-4.898 2.14,-4.957 1.835,-5.146 1.502,-5.271 1.138,-5.345 0.774,-5.417 0.429,-5.455 0.096,-5.455 c -0.98,0 -1.725,0.262 -2.234,0.788 -0.515,0.524 -0.778,1.352 -0.778,2.489 0,0.531 0.073,1.009 0.221,1.42 0.144,0.419 0.346,0.768 0.596,1.054 0.257,0.288 0.561,0.503 0.913,0.646 0.355,0.155 0.745,0.231 1.164,0.231" />
      </g>
      <g
         transform="matrix(0.35277777,0,0,-0.35277777,-30.236467,354.12936)"
         id="g6914">
        <path
           inkscape:connector-curvature="0"
           id="path6916"
           style="fill:#ffffff;fill-opacity:1;fill-rule:nonzero;stroke:none"
           d="m 0,0 h -1.164 c -0.135,0 -0.277,-0.007 -0.435,-0.025 -0.16,-0.013 -0.303,-0.059 -0.451,-0.129 -0.139,-0.078 -0.255,-0.175 -0.354,-0.313 -0.087,-0.14 -0.134,-0.331 -0.134,-0.57 0,-0.347 0.119,-0.589 0.349,-0.727 0.232,-0.137 0.544,-0.208 0.932,-0.208 0.058,0 0.133,0.002 0.236,0.011 0.104,0.005 0.207,0.012 0.32,0.027 0.114,0.017 0.236,0.039 0.357,0.065 0.121,0.021 0.239,0.051 0.344,0.095 z m 1.428,-2.285 c 0,-0.191 -0.079,-0.324 -0.231,-0.399 -0.177,-0.08 -0.367,-0.15 -0.569,-0.203 -0.214,-0.059 -0.422,-0.104 -0.64,-0.135 -0.217,-0.031 -0.439,-0.054 -0.641,-0.067 -0.218,-0.013 -0.416,-0.017 -0.615,-0.017 -0.533,0 -0.972,0.053 -1.329,0.16 -0.344,0.112 -0.622,0.258 -0.832,0.44 -0.2,0.18 -0.342,0.394 -0.425,0.642 -0.084,0.243 -0.125,0.5 -0.125,0.777 0,0.286 0.047,0.552 0.142,0.818 0.087,0.259 0.245,0.492 0.454,0.687 0.205,0.197 0.48,0.36 0.815,0.479 0.336,0.118 0.743,0.18 1.227,0.18 H 0.013 V 1.28 C 0.013,1.431 0,1.576 -0.036,1.708 -0.067,1.834 -0.134,1.947 -0.224,2.048 -0.316,2.139 -0.441,2.215 -0.602,2.264 -0.762,2.319 -0.977,2.35 -1.232,2.35 -1.506,2.35 -1.805,2.325 -2.131,2.273 -2.446,2.228 -2.709,2.173 -2.914,2.105 -3.002,2.082 -3.065,2.08 -3.107,2.09 -3.149,2.105 -3.178,2.155 -3.188,2.228 l -0.17,0.689 c -0.035,0.128 0,0.213 0.11,0.249 0.334,0.125 0.71,0.221 1.108,0.277 0.408,0.048 0.786,0.078 1.134,0.078 0.843,0 1.456,-0.188 1.851,-0.557 C 1.23,2.593 1.428,2.054 1.428,1.343 Z" />
      </g>
      <g
         transform="matrix(0.35277777,0,0,-0.35277777,-43.342655,352.21197)"
         id="g6918">
        <path
           inkscape:connector-curvature="0"
           id="path6920"
           style="fill:#ffffff;fill-opacity:1;fill-rule:nonzero;stroke:none"
           d="M 0,0 C -0.03,0.046 -0.097,0.066 -0.213,0.066 H -3.61 c -0.408,0 -0.752,-0.06 -1.028,-0.181 -0.274,-0.12 -0.494,-0.281 -0.659,-0.481 -0.176,-0.203 -0.293,-0.434 -0.361,-0.699 -0.065,-0.261 -0.099,-0.531 -0.099,-0.813 v -6.044 c 0,-0.106 0.021,-0.176 0.07,-0.205 0.049,-0.029 0.12,-0.051 0.209,-0.051 h 0.38 c 0.26,0.022 0.813,0.15 0.813,0.936 v 2.788 h 3.625 c 0.109,0 0.174,0.027 0.197,0.074 0.032,0.048 0.051,0.117 0.051,0.206 v 0.686 c 0,0.117 -0.019,0.185 -0.051,0.222 -0.023,0.036 -0.088,0.057 -0.197,0.057 h -3.625 v 1.412 c 0,0.26 0.063,0.455 0.192,0.588 0.117,0.132 0.338,0.2 0.645,0.2 h 3.235 c 0.103,0 0.175,0.02 0.205,0.063 0.036,0.036 0.053,0.11 0.053,0.217 v 0.747 C 0.045,-0.115 0.028,-0.045 0,0" />
      </g>
      <g
         transform="matrix(0.35277777,0,0,-0.35277777,-36.61162,354.40149)"
         id="g6922">
        <path
           inkscape:connector-curvature="0"
           id="path6924"
           style="fill:#ffffff;fill-opacity:1;fill-rule:nonzero;stroke:none"
           d="m 0,0 c -0.081,-0.266 -0.193,-0.482 -0.337,-0.652 -0.15,-0.17 -0.32,-0.293 -0.531,-0.369 -0.204,-0.077 -0.435,-0.115 -0.687,-0.115 -0.16,0 -0.348,0.007 -0.559,0.029 -0.211,0.021 -0.407,0.06 -0.606,0.128 V 2.89 c 0.26,0.081 0.506,0.13 0.739,0.154 0.242,0.025 0.418,0.04 0.548,0.04 0.487,0 0.866,-0.173 1.144,-0.526 C -0.017,2.212 0.117,1.69 0.117,0.979 0.117,0.593 0.081,0.268 0,0 M 1.408,2.333 C 1.302,2.741 1.136,3.084 0.915,3.371 0.69,3.661 0.407,3.888 0.055,4.047 -0.296,4.214 -0.712,4.293 -1.192,4.293 -1.414,4.293 -1.665,4.278 -1.938,4.238 -2.22,4.2 -2.474,4.147 -2.708,4.075 L -2.72,6.416 c 0,0.098 -0.014,0.156 -0.047,0.185 -0.032,0.026 -0.092,0.034 -0.179,0.034 H -3.327 C -3.597,6.611 -4.106,6.476 -4.121,5.726 v -7.334 c 0,-0.071 0.012,-0.126 0.034,-0.178 0.025,-0.041 0.076,-0.082 0.145,-0.107 0.365,-0.17 0.759,-0.281 1.19,-0.338 0.433,-0.072 0.856,-0.104 1.265,-0.104 0.531,0 0.992,0.085 1.386,0.254 0.379,0.169 0.698,0.402 0.948,0.71 0.248,0.299 0.434,0.654 0.55,1.068 0.116,0.411 0.173,0.859 0.173,1.343 0,0.465 -0.051,0.899 -0.162,1.293" />
      </g>
      <g
         transform="matrix(0.35277777,0,0,-0.35277777,-32.802713,355.07607)"
         id="g6926">
        <path
           inkscape:connector-curvature="0"
           id="path6928"
           style="fill:#ffffff;fill-opacity:1;fill-rule:nonzero;stroke:none"
           d="M 0,0 -0.082,0.683 C -0.097,0.747 -0.111,0.785 -0.142,0.805 -0.17,0.826 -0.214,0.831 -0.277,0.823 -0.335,0.817 -0.407,0.808 -0.489,0.797 -0.573,0.79 -0.653,0.789 -0.715,0.789 c -0.159,0 -0.27,0.037 -0.324,0.113 -0.055,0.075 -0.083,0.22 -0.083,0.429 v 7.01 c 0,0.091 -0.02,0.143 -0.058,0.172 -0.032,0.026 -0.1,0.034 -0.184,0.034 H -1.759 C -2.019,8.523 -2.524,8.388 -2.556,7.667 V 0.992 c 0,-0.522 0.11,-0.888 0.321,-1.098 0.21,-0.213 0.537,-0.317 0.994,-0.317 0.159,0 0.338,0.012 0.544,0.03 0.208,0.024 0.39,0.064 0.55,0.128 0.081,0.041 0.134,0.078 0.147,0.104 C 0.017,-0.135 0.017,-0.08 0,0" />
      </g>
      <g
         transform="matrix(0.35277777,0,0,-0.35277777,-31.710972,355.07607)"
         id="g6930">
        <path
           inkscape:connector-curvature="0"
           id="path6932"
           style="fill:#ffffff;fill-opacity:1;fill-rule:nonzero;stroke:none"
           d="M 0,0 -0.081,0.683 C -0.09,0.747 -0.109,0.785 -0.139,0.805 -0.162,0.826 -0.215,0.831 -0.273,0.823 -0.332,0.817 -0.404,0.808 -0.488,0.797 -0.57,0.79 -0.645,0.789 -0.71,0.789 c -0.16,0 -0.271,0.037 -0.329,0.113 -0.053,0.075 -0.078,0.22 -0.078,0.429 v 7.01 c 0,0.091 -0.023,0.143 -0.058,0.172 -0.033,0.026 -0.097,0.034 -0.186,0.034 H -1.748 C -2.018,8.523 -2.538,8.385 -2.551,7.625 V 0.992 c 0,-0.522 0.11,-0.888 0.321,-1.098 0.205,-0.213 0.537,-0.317 0.986,-0.317 0.165,0 0.346,0.012 0.556,0.03 0.2,0.024 0.383,0.064 0.547,0.128 0.083,0.041 0.128,0.078 0.141,0.104 C 0.02,-0.135 0.02,-0.08 0,0" />
      </g>
      <g
         transform="matrix(0.35277777,0,0,-0.35277777,-40.30993,355.07607)"
         id="g6934">
        <path
           inkscape:connector-curvature="0"
           id="path6936"
           style="fill:#ffffff;fill-opacity:1;fill-rule:nonzero;stroke:none"
           d="M 0,0 -0.09,0.683 C -0.096,0.747 -0.111,0.785 -0.142,0.805 -0.168,0.826 -0.216,0.831 -0.283,0.823 -0.336,0.817 -0.411,0.808 -0.493,0.797 -0.582,0.79 -0.651,0.789 -0.716,0.789 c -0.159,0 -0.271,0.037 -0.329,0.113 -0.057,0.075 -0.088,0.22 -0.088,0.429 v 7.01 c 0,0.091 -0.013,0.143 -0.047,0.172 -0.044,0.026 -0.096,0.034 -0.188,0.034 H -1.759 C -2.027,8.523 -2.549,8.385 -2.554,7.614 V 0.992 c 0,-0.522 0.106,-0.888 0.318,-1.098 0.209,-0.213 0.533,-0.317 0.99,-0.317 0.157,0 0.342,0.012 0.552,0.03 0.201,0.024 0.385,0.064 0.547,0.128 0.081,0.041 0.126,0.078 0.147,0.104 C 0.017,-0.135 0.017,-0.08 0,0" />
      </g>
    </g>
    <g
       id="g8150"
       transform="matrix(30.20326,0,0,30.20326,2432.6829,-10506.096)"
       style="stroke-width:0.03310901">
      <g
         transform="matrix(0.35277777,0,0,-0.35277777,-58.498305,343.50517)"
         id="g6938"
         style="stroke-width:0.03310901">
        <path
           inkscape:connector-curvature="0"
           id="path6940"
           style="fill:#42ba3f;fill-opacity:1;fill-rule:nonzero;stroke:none;stroke-width:0.03310901"
           d="m 0,0 h -67.109 c -1.768,0 -3.2,-1.425 -3.2,-3.183 v -19.59 -20.117 c 0,-1.754 1.432,-3.18 3.2,-3.18 H 0 c 1.762,0 3.193,1.426 3.193,3.18 v 20.117 19.59 C 3.193,-1.425 1.762,0 0,0" />
      </g>
      <g
         transform="matrix(0.35277777,0,0,-0.35277777,-74.083216,355.48981)"
         id="g6942"
         style="stroke-width:0.03310901">
        <path
           inkscape:connector-curvature="0"
           id="path6944"
           style="fill:#ffffff;fill-opacity:1;fill-rule:nonzero;stroke:none;stroke-width:0.03310901"
           d="m 0,0 h -1.027 c -0.121,0 -0.252,-0.007 -0.391,-0.021 -0.143,-0.014 -0.273,-0.055 -0.402,-0.117 -0.123,-0.07 -0.229,-0.157 -0.309,-0.277 -0.078,-0.123 -0.123,-0.293 -0.123,-0.504 0,-0.311 0.106,-0.524 0.309,-0.643 0.211,-0.124 0.488,-0.186 0.828,-0.186 0.049,0 0.123,0.003 0.211,0.012 0.09,0.003 0.187,0.008 0.283,0.025 0.101,0.014 0.205,0.03 0.318,0.052 0.108,0.021 0.215,0.05 0.303,0.085 z M 1.266,-2.026 C 1.266,-2.192 1.203,-2.312 1.061,-2.379 0.91,-2.446 0.734,-2.51 0.555,-2.557 0.373,-2.607 0.184,-2.65 -0.004,-2.674 c -0.199,-0.03 -0.391,-0.05 -0.578,-0.062 -0.189,-0.011 -0.371,-0.013 -0.543,-0.013 -0.469,0 -0.865,0.045 -1.172,0.142 -0.314,0.097 -0.566,0.223 -0.744,0.384 -0.178,0.164 -0.307,0.352 -0.379,0.57 -0.072,0.217 -0.105,0.446 -0.105,0.688 0,0.255 0.041,0.491 0.125,0.723 0.078,0.229 0.209,0.441 0.398,0.614 0.188,0.17 0.426,0.312 0.723,0.421 0.302,0.108 0.662,0.159 1.088,0.159 h 1.205 v 0.182 c 0,0.133 -0.016,0.262 -0.043,0.379 -0.03,0.109 -0.084,0.209 -0.168,0.299 -0.084,0.081 -0.188,0.15 -0.338,0.192 -0.147,0.05 -0.326,0.072 -0.557,0.072 -0.244,0 -0.506,-0.022 -0.793,-0.066 C -2.178,1.971 -2.402,1.921 -2.586,1.862 -2.662,1.843 -2.717,1.839 -2.752,1.85 -2.787,1.864 -2.814,1.906 -2.834,1.971 l -0.141,0.611 c -0.033,0.113 0,0.19 0.092,0.22 0.297,0.115 0.627,0.199 0.985,0.246 0.359,0.043 0.695,0.067 1.009,0.067 0.741,0 1.289,-0.161 1.633,-0.492 0.35,-0.329 0.522,-0.808 0.522,-1.438 z" />
      </g>
      <g
         transform="matrix(0.35277777,0,0,-0.35277777,-71.260323,355.48981)"
         id="g6946"
         style="stroke-width:0.03310901">
        <path
           inkscape:connector-curvature="0"
           id="path6948"
           style="fill:#ffffff;fill-opacity:1;fill-rule:nonzero;stroke:none;stroke-width:0.03310901"
           d="m 0,0 h -1.025 c -0.123,0 -0.258,-0.007 -0.395,-0.021 -0.135,-0.014 -0.267,-0.055 -0.394,-0.117 -0.125,-0.07 -0.229,-0.157 -0.317,-0.277 -0.074,-0.123 -0.117,-0.293 -0.117,-0.504 0,-0.311 0.102,-0.524 0.316,-0.643 0.203,-0.124 0.477,-0.186 0.821,-0.186 0.045,0 0.121,0.003 0.209,0.012 0.09,0.003 0.187,0.008 0.285,0.025 0.097,0.014 0.203,0.03 0.31,0.052 0.121,0.021 0.219,0.05 0.307,0.085 z M 1.264,-2.026 C 1.264,-2.192 1.205,-2.312 1.062,-2.379 0.908,-2.446 0.734,-2.51 0.555,-2.557 0.375,-2.607 0.184,-2.65 -0.004,-2.674 c -0.201,-0.03 -0.385,-0.05 -0.582,-0.062 -0.185,-0.011 -0.361,-0.013 -0.531,-0.013 -0.481,0 -0.867,0.045 -1.182,0.142 -0.312,0.097 -0.558,0.223 -0.742,0.384 -0.178,0.164 -0.305,0.352 -0.381,0.57 -0.07,0.217 -0.099,0.446 -0.099,0.688 0,0.255 0.039,0.491 0.125,0.723 0.078,0.229 0.208,0.441 0.396,0.614 0.186,0.17 0.426,0.312 0.721,0.421 0.3,0.108 0.658,0.159 1.086,0.159 h 1.205 v 0.182 c 0,0.133 -0.016,0.262 -0.043,0.379 -0.024,0.109 -0.076,0.209 -0.162,0.299 -0.09,0.081 -0.196,0.15 -0.342,0.192 -0.141,0.05 -0.328,0.072 -0.555,0.072 -0.244,0 -0.508,-0.022 -0.797,-0.066 C -2.172,1.971 -2.408,1.921 -2.586,1.862 -2.662,1.843 -2.713,1.839 -2.752,1.85 -2.787,1.864 -2.814,1.906 -2.828,1.971 L -2.98,2.582 c -0.032,0.113 0.003,0.19 0.095,0.22 0.299,0.115 0.629,0.199 0.987,0.246 0.363,0.043 0.701,0.067 1.009,0.067 0.744,0 1.291,-0.161 1.641,-0.492 0.34,-0.329 0.512,-0.808 0.512,-1.438 z" />
      </g>
      <g
         transform="matrix(0.35277777,0,0,-0.35277777,-67.720833,354.75652)"
         id="g6950"
         style="stroke-width:0.03310901">
        <path
           inkscape:connector-curvature="0"
           id="path6952"
           style="fill:#ffffff;fill-opacity:1;fill-rule:nonzero;stroke:none;stroke-width:0.03310901"
           d="m 0,0 c -0.186,0 -0.361,-0.038 -0.516,-0.114 -0.15,-0.077 -0.279,-0.18 -0.379,-0.304 -0.107,-0.131 -0.201,-0.276 -0.265,-0.443 -0.063,-0.158 -0.1,-0.332 -0.104,-0.51 h 2.471 c 0,0.194 -0.021,0.368 -0.061,0.536 C 1.109,-0.673 1.051,-0.531 0.957,-0.404 0.871,-0.281 0.752,-0.179 0.6,-0.107 0.445,-0.038 0.246,0 0,0 m -0.016,1.037 c 0.819,0 1.428,-0.212 1.83,-0.633 C 2.203,-0.016 2.4,-0.593 2.4,-1.332 2.4,-1.515 2.379,-1.667 2.342,-1.792 2.295,-1.913 2.234,-2.004 2.152,-2.079 2.076,-2.153 1.988,-2.204 1.885,-2.225 1.777,-2.255 1.666,-2.271 1.539,-2.271 h -2.84 c 0.002,-0.281 0.041,-0.51 0.121,-0.702 0.082,-0.19 0.184,-0.341 0.319,-0.459 0.146,-0.117 0.297,-0.203 0.474,-0.252 0.178,-0.048 0.379,-0.076 0.582,-0.076 0.227,0 0.457,0.028 0.676,0.085 0.219,0.056 0.412,0.126 0.574,0.207 0.117,0.047 0.194,0.028 0.244,-0.068 L 1.975,-4.143 C 2.023,-4.262 1.996,-4.341 1.9,-4.392 1.629,-4.557 1.332,-4.669 1.008,-4.737 0.686,-4.796 0.375,-4.828 0.086,-4.828 c -0.865,0 -1.533,0.231 -1.982,0.694 -0.461,0.466 -0.692,1.197 -0.692,2.204 0,0.472 0.065,0.893 0.201,1.258 0.125,0.369 0.305,0.682 0.526,0.936 0.228,0.251 0.492,0.448 0.812,0.572 0.309,0.133 0.662,0.201 1.033,0.201" />
      </g>
      <g
         transform="matrix(0.35277777,0,0,-0.35277777,-63.621838,355.48981)"
         id="g6954"
         style="stroke-width:0.03310901">
        <path
           inkscape:connector-curvature="0"
           id="path6956"
           style="fill:#ffffff;fill-opacity:1;fill-rule:nonzero;stroke:none;stroke-width:0.03310901"
           d="m 0,0 h -1.035 c -0.113,0 -0.246,-0.007 -0.385,-0.021 -0.141,-0.014 -0.277,-0.055 -0.402,-0.117 -0.123,-0.07 -0.227,-0.157 -0.309,-0.277 -0.074,-0.123 -0.123,-0.293 -0.123,-0.504 0,-0.311 0.102,-0.524 0.311,-0.643 0.207,-0.124 0.49,-0.186 0.828,-0.186 0.053,0 0.121,0.003 0.207,0.012 0.094,0.003 0.189,0.008 0.285,0.025 0.1,0.014 0.211,0.03 0.316,0.052 0.11,0.021 0.213,0.05 0.307,0.085 z M 1.264,-2.026 C 1.264,-2.192 1.199,-2.312 1.061,-2.379 0.906,-2.446 0.736,-2.51 0.555,-2.557 0.375,-2.607 0.18,-2.65 -0.008,-2.674 c -0.195,-0.03 -0.392,-0.05 -0.574,-0.062 -0.195,-0.011 -0.367,-0.013 -0.543,-0.013 -0.473,0 -0.857,0.045 -1.18,0.142 -0.304,0.097 -0.552,0.223 -0.736,0.384 -0.178,0.164 -0.305,0.352 -0.379,0.57 -0.072,0.217 -0.105,0.446 -0.105,0.688 0,0.255 0.037,0.491 0.121,0.723 0.082,0.229 0.215,0.441 0.406,0.614 0.18,0.17 0.422,0.312 0.719,0.421 0.299,0.108 0.66,0.159 1.088,0.159 H 0.01 V 1.134 C 0.01,1.267 0,1.396 -0.031,1.513 -0.057,1.622 -0.117,1.722 -0.199,1.812 -0.281,1.893 -0.393,1.962 -0.535,2.004 -0.68,2.054 -0.865,2.076 -1.09,2.076 -1.334,2.076 -1.598,2.054 -1.893,2.01 -2.172,1.971 -2.404,1.921 -2.582,1.862 -2.662,1.843 -2.723,1.839 -2.754,1.85 -2.789,1.864 -2.818,1.906 -2.832,1.971 l -0.152,0.611 c -0.03,0.113 0.005,0.19 0.099,0.22 0.303,0.115 0.631,0.199 0.987,0.246 0.355,0.043 0.697,0.067 1.005,0.067 0.743,0 1.291,-0.161 1.643,-0.492 C 1.09,2.294 1.264,1.815 1.264,1.185 Z" />
      </g>
      <g
         transform="matrix(0.35277777,0,0,-0.35277777,-75.250416,353.79189)"
         id="g6958"
         style="stroke-width:0.03310901">
        <path
           inkscape:connector-curvature="0"
           id="path6960"
           style="fill:#ffffff;fill-opacity:1;fill-rule:nonzero;stroke:none;stroke-width:0.03310901"
           d="m 0,0 c -0.025,0.042 -0.09,0.058 -0.187,0.058 h -3.018 c -0.354,0 -0.66,-0.053 -0.904,-0.16 -0.248,-0.106 -0.442,-0.248 -0.59,-0.425 -0.153,-0.183 -0.26,-0.389 -0.321,-0.619 -0.054,-0.233 -0.089,-0.469 -0.089,-0.727 v -5.348 c 0,-0.093 0.019,-0.154 0.066,-0.183 0.043,-0.03 0.106,-0.044 0.186,-0.044 h 0.336 c 0.232,0.016 0.72,0.134 0.72,0.832 v 2.469 h 3.213 c 0.098,0 0.154,0.02 0.182,0.063 0.027,0.042 0.039,0.104 0.039,0.182 v 0.609 c 0,0.102 -0.012,0.162 -0.039,0.192 -0.028,0.036 -0.084,0.055 -0.182,0.055 h -3.213 v 1.253 c 0,0.229 0.055,0.398 0.17,0.517 0.106,0.121 0.301,0.179 0.572,0.179 h 2.872 c 0.095,0 0.152,0.02 0.179,0.058 0.029,0.027 0.049,0.095 0.049,0.189 v 0.664 C 0.041,-0.102 0.021,-0.04 0,0" />
      </g>
      <g
         transform="matrix(0.35277777,0,0,-0.35277777,-69.277324,355.73061)"
         id="g6962"
         style="stroke-width:0.03310901">
        <path
           inkscape:connector-curvature="0"
           id="path6964"
           style="fill:#ffffff;fill-opacity:1;fill-rule:nonzero;stroke:none;stroke-width:0.03310901"
           d="m 0,0 c -0.076,-0.237 -0.178,-0.431 -0.303,-0.583 -0.127,-0.146 -0.283,-0.253 -0.468,-0.323 -0.19,-0.073 -0.391,-0.106 -0.614,-0.106 -0.138,0 -0.312,0.012 -0.492,0.03 -0.182,0.018 -0.357,0.054 -0.531,0.111 v 3.426 c 0.226,0.076 0.435,0.121 0.648,0.136 0.215,0.024 0.367,0.036 0.489,0.036 0.433,0 0.763,-0.151 1.011,-0.462 C -0.018,1.96 0.1,1.493 0.1,0.86 0.1,0.523 0.072,0.234 0,0 M 1.248,2.067 C 1.152,2.423 1.004,2.727 0.811,2.986 0.607,3.242 0.355,3.443 0.051,3.581 -0.268,3.731 -0.635,3.798 -1.062,3.798 -1.264,3.798 -1.473,3.784 -1.723,3.751 -1.977,3.721 -2.197,3.669 -2.408,3.606 v 2.076 c 0,0.085 -0.024,0.139 -0.049,0.159 -0.025,0.025 -0.078,0.034 -0.156,0.034 H -2.955 C -3.191,5.858 -3.646,5.735 -3.656,5.068 v -6.496 c 0,-0.063 0.01,-0.113 0.031,-0.155 0.02,-0.039 0.066,-0.072 0.127,-0.096 0.316,-0.148 0.67,-0.246 1.057,-0.299 0.386,-0.064 0.757,-0.088 1.123,-0.088 0.466,0 0.877,0.075 1.224,0.219 0.338,0.152 0.623,0.356 0.846,0.63 0.215,0.268 0.387,0.583 0.486,0.948 0.106,0.361 0.155,0.758 0.155,1.188 0,0.412 -0.049,0.795 -0.145,1.148" />
      </g>
      <g
         transform="matrix(0.35277777,0,0,-0.35277777,-65.899759,356.3285)"
         id="g6966"
         style="stroke-width:0.03310901">
        <path
           inkscape:connector-curvature="0"
           id="path6968"
           style="fill:#ffffff;fill-opacity:1;fill-rule:nonzero;stroke:none;stroke-width:0.03310901"
           d="M 0,0 -0.076,0.597 C -0.08,0.659 -0.096,0.694 -0.123,0.714 -0.146,0.731 -0.184,0.734 -0.246,0.727 -0.293,0.724 -0.359,0.717 -0.432,0.706 -0.508,0.7 -0.58,0.7 -0.631,0.7 c -0.14,0 -0.24,0.031 -0.287,0.101 -0.049,0.062 -0.072,0.192 -0.072,0.376 v 6.212 c 0,0.079 -0.024,0.126 -0.051,0.148 -0.033,0.023 -0.094,0.032 -0.176,0.032 H -1.553 C -1.791,7.553 -2.234,7.43 -2.26,6.792 V 0.876 c 0,-0.46 0.094,-0.785 0.281,-0.971 0.18,-0.188 0.479,-0.276 0.879,-0.276 0.139,0 0.301,0.006 0.487,0.021 0.181,0.023 0.343,0.058 0.486,0.118 0.072,0.033 0.115,0.065 0.127,0.09 C 0.014,-0.12 0.014,-0.069 0,0" />
      </g>
      <g
         transform="matrix(0.35277777,0,0,-0.35277777,-64.928915,356.3285)"
         id="g6970"
         style="stroke-width:0.03310901">
        <path
           inkscape:connector-curvature="0"
           id="path6972"
           style="fill:#ffffff;fill-opacity:1;fill-rule:nonzero;stroke:none;stroke-width:0.03310901"
           d="M 0,0 -0.074,0.597 C -0.082,0.659 -0.098,0.694 -0.125,0.714 -0.148,0.731 -0.195,0.734 -0.248,0.727 -0.299,0.724 -0.363,0.717 -0.436,0.706 -0.506,0.7 -0.58,0.7 -0.633,0.7 c -0.142,0 -0.24,0.031 -0.291,0.101 -0.045,0.062 -0.07,0.192 -0.07,0.376 v 6.212 c 0,0.079 -0.018,0.126 -0.051,0.148 -0.027,0.023 -0.088,0.032 -0.168,0.032 H -1.561 C -1.793,7.553 -2.258,7.424 -2.262,6.751 V 0.876 c 0,-0.46 0.088,-0.785 0.274,-0.971 0.191,-0.188 0.482,-0.276 0.881,-0.276 0.148,0 0.306,0.006 0.488,0.021 0.183,0.023 0.346,0.058 0.494,0.118 0.072,0.033 0.105,0.065 0.125,0.09 C 0.01,-0.12 0.01,-0.069 0,0" />
      </g>
      <g
         transform="matrix(0.35277777,0,0,-0.35277777,-72.559816,356.3285)"
         id="g6974"
         style="stroke-width:0.03310901">
        <path
           inkscape:connector-curvature="0"
           id="path6976"
           style="fill:#ffffff;fill-opacity:1;fill-rule:nonzero;stroke:none;stroke-width:0.03310901"
           d="m 0,0 -0.074,0.597 c -0.01,0.062 -0.022,0.097 -0.047,0.117 -0.024,0.017 -0.07,0.02 -0.125,0.013 C -0.295,0.724 -0.363,0.717 -0.437,0.706 -0.52,0.7 -0.576,0.7 -0.635,0.7 c -0.14,0 -0.242,0.031 -0.289,0.101 -0.055,0.062 -0.078,0.192 -0.078,0.376 v 6.212 c 0,0.079 -0.01,0.126 -0.043,0.148 -0.035,0.023 -0.086,0.032 -0.164,0.032 h -0.35 C -1.799,7.553 -2.262,7.424 -2.262,6.744 V 0.876 c 0,-0.46 0.094,-0.785 0.276,-0.971 0.187,-0.188 0.478,-0.276 0.881,-0.276 0.14,0 0.304,0.006 0.486,0.021 0.182,0.023 0.348,0.058 0.492,0.118 0.066,0.033 0.111,0.065 0.127,0.09 C 0.01,-0.12 0.01,-0.069 0,0" />
      </g>
      <g
         transform="matrix(0.35277777,0,0,-0.35277777,-73.09311,351.53898)"
         id="g6978"
         style="stroke-width:0.03310901">
        <path
           inkscape:connector-curvature="0"
           id="path6980"
           style="fill:#ffffff;fill-opacity:1;fill-rule:nonzero;stroke:none;stroke-width:0.03310901"
           d="M 0,0 0.004,0.009 C 0.004,0.009 0.002,0.013 0,0" />
      </g>
      <g
         transform="matrix(0.35277777,0,0,-0.35277777,-62.843928,352.11087)"
         id="g6982"
         style="stroke-width:0.03310901">
        <path
           inkscape:connector-curvature="0"
           id="path6984"
           style="fill:#ffffff;fill-opacity:1;fill-rule:nonzero;stroke:none;stroke-width:0.03310901"
           d="m 0,0 -1.623,1.621 -2.484,2.478 0.324,0.07 c 2.213,0.461 3.697,1.855 3.701,4.531 -0.004,3.125 -2.621,4.857 -5.238,4.862 h -5.463 c -0.061,-0.005 -0.112,-0.019 -0.149,-0.039 -0.039,-0.025 -0.06,-0.085 -0.06,-0.186 V 11.701 1.621 -0.272 c 0.021,-0.093 0.047,-0.152 0.09,-0.17 0.035,-0.019 0.109,-0.026 0.187,-0.013 l 0.031,0.004 v -0.004 l 2.272,0.329 c 0.049,0.002 0.08,0.019 0.107,0.033 0.043,0.023 0.059,0.087 0.059,0.183 v 1.531 0.106 9.157 h 3.031 C -3.902,10.881 -2.768,9.956 -2.764,8.721 -2.76,7.493 -3.676,6.865 -4.975,6.549 -6.297,6.211 -6.895,5.289 -6.9,4.292 -6.9,3.663 -6.66,3.005 -6.164,2.45 -5.727,1.907 -5.471,1.666 -5.42,1.621 -5.416,1.615 -5.398,1.603 -5.398,1.603 l 3.634,-3.691 c 0.213,-0.133 0.465,-0.218 0.76,-0.218 0.76,10e-4 1.395,0.616 1.395,1.369 C 0.391,-0.503 0.211,-0.208 0,0" />
      </g>
      <g
         transform="matrix(0.35277777,0,0,-0.35277777,-73.24745,350.86186)"
         id="g6986"
         style="stroke-width:0.03310901">
        <path
           inkscape:connector-curvature="0"
           id="path6988"
           style="fill:#ffffff;fill-opacity:1;fill-rule:nonzero;stroke:none;stroke-width:0.03310901"
           d="M 0,0 C -0.242,0.152 -0.502,0.227 -0.771,0.227 -1.152,0.225 -1.512,0.069 -1.762,-0.2 c -0.08,-0.095 -0.258,-0.258 -0.326,-0.327 -0.947,-0.878 -2.187,-1.368 -3.486,-1.368 -2.836,0 -5.143,2.31 -5.143,5.144 0,2.83 2.307,5.13 5.143,5.13 0.939,-0.004 2.236,-0.169 3.359,-1.245 0,0 0.022,-0.022 0.037,-0.025 0.033,-0.028 0.102,-0.033 0.192,-0.021 l 2.427,0.357 c 0.245,0.036 0.125,0.224 0.125,0.224 -0.431,0.784 -2.228,3.543 -6.386,3.502 -4.387,-0.042 -7.672,-3.485 -7.713,-7.961 0.006,-1.955 0.724,-3.744 1.9,-5.129 1.461,-1.716 3.637,-2.811 6.059,-2.816 2.951,0 4.881,1.556 5.775,2.48 0,0 0.111,0.133 0.225,0.336 0.113,0.202 0.217,0.475 0.213,0.764 C 0.627,-0.679 0.387,-0.253 0,0" />
      </g>
      <g
         transform="matrix(0.35277777,0,0,-0.35277777,-67.949575,347.13822)"
         id="g6990"
         style="stroke-width:0.03310901">
        <path
           inkscape:connector-curvature="0"
           id="path6992"
           style="fill:#ffffff;fill-opacity:1;fill-rule:nonzero;stroke:none;stroke-width:0.03310901"
           d="M 0,0 C -1.133,0 -1.777,-0.8 -2.283,-1.854 L -5.385,-8.45 c 0,0 -0.025,-0.08 -0.076,-0.08 -0.051,0 -0.086,0.08 -0.086,0.08 l -2.65,4.509 v 0.002 l -0.817,1.402 c -0.047,0.08 -0.097,0.125 -0.146,0.129 -0.051,0.007 -0.076,10e-4 -0.076,10e-4 l -3.619,-0.511 c -0.032,-0.008 -0.077,-0.02 -0.098,-0.038 -0.037,-0.022 -0.055,-0.085 -0.055,-0.184 v -1.634 -7.701 -2.551 c 0,-0.741 0.627,-1.346 1.375,-1.348 0.746,0.002 1.367,0.607 1.373,1.348 v 2.551 6.589 l 3.946,-6.589 0.841,-1.403 c 0,0 0.032,-0.051 0.077,-0.051 0.037,0 0.062,0.051 0.062,0.051 l 0.686,1.403 3.974,8.059 v -8.059 -2.507 l 0.008,10e-4 c 0.016,-0.09 0.041,-0.146 0.088,-0.168 0.031,-0.017 0.09,-0.02 0.162,-0.017 l 0.02,0.001 2.289,0.328 -0.004,0.002 c 0.054,0.008 0.097,0.018 0.125,0.037 0.045,0.025 0.052,0.082 0.06,0.168 h 0.008 v 2.155 10.399 C 2.078,-0.943 1.125,-0.001 0,0" />
      </g>
    </g>
  </g>
</svg>
