<?xml version="1.0" encoding="UTF-8"?>
<svg xmlns="http://www.w3.org/2000/svg" xmlns:xlink="http://www.w3.org/1999/xlink" width="363.89pt" height="98.23pt" viewBox="0 0 363.89 98.23" version="1.1">
<defs>
<clipPath id="clip1">
  <path d="M 314 27 L 363.890625 27 L 363.890625 98.230469 L 314 98.230469 Z M 314 27 "/>
</clipPath>
</defs>
<g id="surface1">
<path style=" stroke:none;fill-rule:nonzero;fill:rgb(88.999939%,10.598755%,9.399414%);fill-opacity:1;" d="M 77.082031 0 L 77.082031 76.957031 L 64.125 76.957031 L 64.125 27.75 L 52.042969 27.75 L 52.042969 76.957031 L 0 76.957031 L 0.164063 0.046875 "/>
<path style=" stroke:none;fill-rule:nonzero;fill:rgb(0%,0%,0%);fill-opacity:1;" d="M 90.140625 27.609375 L 90.140625 77.070313 L 102.890625 77.089844 L 102.949219 38.542969 L 117.125 38.542969 C 117.125 38.542969 121.648438 38.542969 121.804688 43.21875 L 122.113281 77.023438 L 135.515625 77.023438 L 135.589844 45.007813 C 135.589844 45.007813 135.671875 28.027344 116.503906 27.480469 "/>
<path style=" stroke:none;fill-rule:nonzero;fill:rgb(0%,0%,0%);fill-opacity:1;" d="M 180.703125 67.75 L 162.394531 67.675781 C 162.394531 67.675781 157.328125 67.917969 157.640625 64.246094 L 157.5625 61.054688 C 157.5625 61.054688 157.5625 57.15625 161.617188 56.847656 L 180.773438 56.929688 Z M 177.191406 28.03125 L 147.511719 27.949219 L 147.511719 37.53125 L 172.277344 37.53125 C 172.277344 37.53125 180.386719 37.222656 180.847656 44.773438 L 180.929688 47.183594 L 158.261719 47.183594 C 158.261719 47.183594 145.570313 47.425781 144.398438 59.1875 L 144.398438 67.285156 C 144.398438 67.285156 145.179688 74.527344 155.222656 76.945313 L 193.933594 76.871094 L 193.933594 43.453125 C 193.933594 43.453125 193.933594 28.574219 177.191406 28.03125 "/>
<path style=" stroke:none;fill-rule:nonzero;fill:rgb(0%,0%,0%);fill-opacity:1;" d="M 246.285156 77.257813 L 246.285156 66.664063 L 227.675781 66.742188 C 227.675781 66.742188 216.148438 65.882813 216.613281 55.683594 L 216.613281 49.363281 C 216.613281 49.363281 216.765625 39.867188 226.972656 38.621094 L 246.136719 38.542969 L 246.136719 27.949219 L 224.792969 27.949219 C 224.792969 27.949219 204.847656 28.335938 202.894531 48.507813 C 202.894531 48.507813 202.128906 56.535156 203.136719 59.34375 C 203.136719 59.34375 206.640625 77.023438 227.355469 77.417969 "/>
<path style=" stroke:none;fill-rule:nonzero;fill:rgb(0%,0%,0%);fill-opacity:1;" d="M 289.539063 67.625 L 271.230469 67.550781 C 271.230469 67.550781 266.164063 67.785156 266.484375 64.121094 L 266.402344 60.925781 C 266.402344 60.925781 266.402344 57.035156 270.453125 56.71875 L 289.613281 56.800781 Z M 286.027344 27.894531 L 256.351563 27.820313 L 256.351563 37.398438 L 281.121094 37.398438 C 281.121094 37.398438 289.222656 37.089844 289.6875 44.640625 L 289.769531 47.054688 L 267.097656 47.054688 C 267.097656 47.054688 254.398438 47.292969 253.238281 59.058594 L 253.238281 67.15625 C 253.238281 67.15625 254.015625 74.398438 264.0625 76.816406 L 302.777344 76.734375 L 302.777344 43.316406 C 302.777344 43.316406 302.777344 28.4375 286.027344 27.894531 "/>
<g clip-path="url(#clip1)" clip-rule="nonzero">
<path style=" stroke:none;fill-rule:nonzero;fill:rgb(0%,0%,0%);fill-opacity:1;" d="M 342.1875 66.433594 L 327.464844 66.503906 L 327.621094 38.621094 L 340.945313 38.542969 C 340.945313 38.542969 348.882813 38.9375 349.671875 47.890625 L 349.746094 58.25 C 349.746094 58.25 349.746094 64.328125 342.1875 66.433594 M 363.867188 53.375 C 364.644531 28.175781 342.667969 27.910156 342.667969 27.910156 L 314.488281 27.910156 L 314.488281 98.230469 L 327.414063 98.230469 L 327.414063 76.769531 L 342.667969 76.769531 C 365.285156 76.128906 363.867188 53.375 363.867188 53.375 "/>
</g>
</g>
</svg>
