<svg id="Capa_1" data-name="Capa 1" xmlns="http://www.w3.org/2000/svg" width="2007.13" height="858.08" viewBox="0 0 2007.13 858.08">
  <g>
    <path d="M862.49-414.42h-.55a96.54,96.54,0,0,0-91,64.41L613.8,94.51,456.77-350a96.56,96.56,0,0,0-91-64.41H-275.73a87.05,87.05,0,0,0-87,87.05v.3a87,87,0,0,0,87,87H-68.52V332.24a87,87,0,0,0,87,87h.06a86.69,86.69,0,0,0,86.69-86.62V-240.08H310.69L522.93,360.09c30.33,85.9,151.89,85.9,182.28,0l235-664.7C959.17-358.19,919.33-414.42,862.49-414.42Z" transform="translate(362.73 433.57)" style="fill: #fb1519"/>
    <path d="M1644.27-156c-1.52-47.76-17.86-195.11-159.64-256.13-3.21-1.4-6.42-2.67-9.63-3.94-171.8-66-342.46,75.79-342.46,75.79V-412H963V415.54h169.5V-70.81c.13-17.08,5.09-100.86,74.77-151.47,32-23.25,68.16-48.67,131.67-48.67,130.33,0,135.84,135.12,136.21,152.13V415.54h169.08C1644.27,415.3,1644.57-146.37,1644.27-156Z" transform="translate(362.73 433.57)" style="fill: #fb1519"/>
  </g>
</svg>
