<svg xmlns="http://www.w3.org/2000/svg" viewBox="0 0 679.94288 206.2139"><defs><style>.a{fill:#ea0029;}</style></defs><path class="a" d="M561.728,35.4883c-7.8027,0-15.2656,4.1406-19.9707,10.2104h-.2432l1.85362-8.5244H522.82079l-13.4375,67.0982h21.4453l7.2012-35.5542c1.5-6.982,4.09669-12.812,11.91209-12.812,3.9834,0,6.9512,2.2089,6.9512,6.4648,0,2.7227-1.2286,7.2485-1.98438,11.1245l-6.32912,30.7769h22.2246l7.8144-37.8736a75.69662,75.69662,0,0,0,1.7344-12.8027c0-13.1953-7.31828-18.1079-18.625-18.1079"/><path class="a" d="M428.39209,104.2725l18.4863-92.3155h-22.2803l-6.6963,35.1788c-3.0488-10.2017-11.163-11.6475-18.6103-11.6475-19.2549,0-32.0234,17.7143-32.0234,43.1821,0,8.1494,2.8417,27.2783,23.5722,27.2783,7.4365,0,13.39941-2.4707,17.6221-11.5654h.2334l-1.957,9.8892Zm-28.3057-16.4317c-6.4551,0-8.8086-5.8999-8.8086-11.9819,0-9.6934,3.2276-22.2344,13.0215-22.2344,6.335,0,8.8213,4.9126,8.8213,12.4209,0,8.0171-3.4697,21.7954-13.0342,21.7954"/><path class="a" d="M203.57129,35.3809c-7.4312,0-13.3872,2.4736-17.626,11.5595h-.23l1.9732-9.8891h-22.4639l-18.4858,92.3247h23.0776l6.7031-35.1821c3.044,10.1982,11.169,11.6479,18.61821,11.6479,19.23629,0,31.19329-18.5557,31.19329-44.0205,0-8.1304-2.0297-26.4404-22.7597-26.4404m-12.9649,52.3208c-6.3403,0-8.8271-4.916-8.8271-12.4165,0-8.023,3.2265-20.8164,12.79441-20.8164,6.45409,0,9.06009,4.916,9.06009,10.9907,0,9.7002-3.2295,22.2422-13.0274,22.2422"/><path class="a" d="M332.86079,33.7954c17.8115,0,29.5528,10.7495,29.5528,31.0337,0,17.2007-8.6778,42.8091-36.71389,42.8091-16.75831,0-30.36331-10.6016-30.36331-33.0967,0-21.4722,12.6724-40.7461,37.5244-40.7461m-6.1103,55.23c9.1411,0,12.435-16.5571,12.435-22.3872,0-8.0122-1.8686-13.7105-8.0776-13.7105-9.2773,0-12.5581,16.5655-12.5581,23.5425,0,5.4395,1.6484,12.5552,8.2007,12.5552"/><path class="a" d="M128.5806,83.9082a11.70009,11.70009,0,0,1-10.6207,6.3784c-8.8203,0-11.458-7.9668-11.458-13.854h17.941l26.41159-.0317a47.43906,47.43906,0,0,0,1.582-11.5401c0-21.8188-14.07419-31.7646-28.48239-31.7646-16.0689,0-38.1509,11.5059-38.1509,43.2168,0,15.4165,9.3916,31.8857,30.7295,31.8857,26.125,0,30.10549-16.7026,31.87649-22.1982l.6049-2.0923Zm-6.2525-33.7944c6.9834,0,10.4624,4.6611,10.4624,10.5351a16.84546,16.84546,0,0,1-.2768,2.5479H107.9643c2.0923-8.2744,6.9703-13.083,14.3638-13.083"/><path class="a" d="M484.69479,83.9082a11.69521,11.69521,0,0,1-10.62009,6.3784c-8.82321,0-11.45511-7.9668-11.45511-13.854h17.9346l26.415-.0317a47.32855,47.32855,0,0,0,1.586-11.5401c0-21.8183-14.0752-31.7646-28.4864-31.7646-16.0722,0-38.1513,11.5059-38.1513,43.2168,0,15.4165,9.3916,31.8857,30.7265,31.8857,26.125.0005,30.1084-16.7026,31.8789-22.1982l.6055-2.0923ZM478.439,50.1138c6.9902,0,10.4726,4.6611,10.4726,10.5351a16.67555,16.67555,0,0,1-.2842,2.5479h-24.5488c2.0928-8.2744,6.9707-13.083,14.3604-13.083"/><path class="a" d="M293.04879,56.2651c1.3047-18.1074-14.3672-23.0019-27.3696-23.0019-14.7866,0-30.7197,7.0972-30.7197,26.3682,0,7.3911,3.2075,11.5322,6.917,13.9277V73.54a26.75245,26.75245,0,0,0,9.7597,3.4161c1.0967.2016,2.1367.3906,3.1328.5669,7.0782,1.2856,11.8618,2.1367,11.8618,6.3281,0,2.6787-1.4814,6.2212-6.8076,6.2212-2.584,0-5.4043-.4224-6.832-1.5825-1.4146-1.418-2.061-3.9205-2.061-6.6304H229.416c-.4697,20.1811,15.9614,25.3496,29.21,25.3496,18.9209,0,31.1074-11.1304,31.1074-26.6353,0-8.6982-3.2993-13.5952-9.8921-16.6899v.0317a47.05688,47.05688,0,0,0-11.0742-3.3042c-.2393-.038-.48539-.0883-.7246-.1352-1.38679-.2495-2.8047-.4951-4.336-.7193-3.06979-.3872-5.7861-1.4746-5.7861-5.1113,0-3.9961,3.65531-5.9971,6.854-5.9971,1.9727,0,4.8564.6114,6.1738,2.1622,1.399,1.645,1.399,2.8769,1.1724,5.4545h20.9282Z"/><path class="a" d="M62.7856,0H20.8281L0,104.0327H22.6367l7.0967-35.542H49.2788c23.6416,0,41.4722-15.9629,41.4722-37.1152C90.751,10.8477,81.0762,0,62.7856,0M50.5078,45.4341H34.3974L39.456,20.919H53.7065c3.7339,0,15.0918,0,15.0918,10.9702,0,8.9907-6.1518,13.5449-18.2905,13.5449"/><path class="a" d="M593.3677,80.4854c-.35842,1.7963-.74712,3.3969-1.02052,5.1245l-3.8204,18.6372H610.852l9.1045-44.8462,1.4278-7.1631h11.4648l3.30862-15.0825H624.59128l5.23242-25.271H607.59908l-5.2363,25.271h-10.501l-3.5303,15.0825h10.8223Z"/><path class="a" d="M679.94288,85.0239a13.76133,13.76133,0,0,1-.3457,1.5625v.0254c-4.1729,13.8345-13.1426,15.7066-21.3916,15.7066-2.5723,0-5.2325-.2017-7.7911-.4097-2.5781-.1826-5.0263-.3657-7.3925-.3657-1.0596,0-2.0274.0376-2.9629.1196a7.85936,7.85936,0,0,0-1.1153.1201,16.83122,16.83122,0,0,0-4.4443,1.1406c-3.4092,1.2544-4.2295,2.7608-4.2295,2.7608a7.1835,7.1835,0,0,1,.0859-2.1367h.003c3.4599-15.9082,14.4463-18.3223,23.3134-18.3223,3.2305,0,6.5118.2837,9.6827.5669,3.0429.2778,5.9355.5425,8.6504.5425a23.17208,23.17208,0,0,0,6.5068-.7813h.0254a7.67929,7.67929,0,0,0,1.4053-.5293m-30.877,34.0791c-14.36718,0-16.40718,1.3863-20.28318,6.6299-22.92192,35.1192-65.041,58.7173-113.14061,58.7173-46.6817,0-87.7539-22.2554-111.0879-55.6978-3.3682-3.9707-6.5801-5.2377-19.43749-5.2377h-8.85551c24.1719,48.7456,77.5557,82.6992,139.3809,82.6992,40.75969,0,79.11229-14.5786,108.01761-41.044a141.187,141.187,0,0,0,33.59958-46.0669Z"/></svg>