<svg viewBox="0 0 278.47 94.11" xmlns="http://www.w3.org/2000/svg" data-name="Capa 2" id="Capa_2">
  <defs>
    <style>
      .cls-1 {
        fill: #fff;
      }
    </style>
  </defs>
  <g data-name="Capa 1" id="Capa_1-2">
    <g>
      <path d="M144.92,94.11c25.26,0,43.05-5.55,43.05-34.15v-26.09C187.97,5.56,170.19,0,144.92,0s-42.73,5.56-42.73,33.87v26.09c0,28.6,17.76,34.15,42.73,34.15M144.92,72.45c-12.76,0-16.93-1.39-17.21-14.98v-20.83c.28-13.87,4.45-15.27,17.21-15.27s17.49,1.4,17.49,15.27v20.83c0,13.6-4.43,14.98-17.49,14.98" class="cls-1"></path>
      <path d="M278.47,58.29v2.77c0,10.01-.27,19.16-8.61,26.09-8.34,6.95-18.6,6.95-29.43,6.95-24.97,0-43.3-1.38-43.3-35.26v-23.86C197.12,4.44,213.51,0,240.42,0s37.48,2.5,37.77,30.26v3.6h-25.28v-3.6c-.82-8.05-6.66-8.88-14.97-8.88-14.16,0-15.55,4.43-15.55,17.49v14.71c0,13.6.56,18.87,15.55,18.87,10.28,0,14.97-.55,14.97-11.38v-2.77h25.55Z" class="cls-1"></path>
      <path d="M25.56,93.28l26.92-58.58c4.45-9.44,6.96-12.5,16.38-12.5v71.07h24.73V.83h-27.8c-23.03,0-27.46,9.7-38.58,33.86L0,93.28h25.56Z" class="cls-1"></path>
    </g>
  </g>
</svg>